<?xml version="1.0" encoding="UTF-8"?>
<svg width="11px" height="11px" viewBox="0 0 11 11" version="1.1" xmlns="http://www.w3.org/2000/svg" xmlns:xlink="http://www.w3.org/1999/xlink">
    <title>close white</title>
    <g id="Page-1" stroke="none" stroke-width="1" fill="none" fill-rule="evenodd">
        <g id="Home--Copy-7" transform="translate(-307.000000, -854.000000)" fill="#FFFFFF" fill-rule="nonzero">
            <g id="Group-11" transform="translate(0.000000, 836.000000)">
                <g id="Group-4" transform="translate(223.000000, 14.000000)">
                    <path d="M84.0326545,13.4271242 L85.5728758,14.9673455 C85.5937589,14.9882526 85.6220969,15 85.6516471,15 C85.6811972,15 85.7095352,14.9882526 85.7304184,14.9673455 L89.5620489,11.135715 L93.3936794,14.9673455 C93.4145626,14.9882526 93.4429006,15 93.4724508,15 C93.5020009,15 93.5303389,14.9882526 93.5512221,14.9673455 L94.9673455,13.5512221 C94.9882526,13.5303389 95,13.5020009 95,13.4724508 C95,13.4429006 94.9882526,13.4145626 94.9673455,13.3936794 L91.135715,9.56204892 L94.9673455,5.73041839 C94.9882526,5.70953521 95,5.68119722 95,5.65164708 C95,5.62209693 94.9882526,5.59375895 94.9673455,5.57287576 L93.4271242,4.03265446 C93.4062411,4.01174745 93.3779031,4 93.3483529,4 C93.3188028,4 93.2904648,4.01174745 93.2695816,4.03265446 L89.4379511,7.86428498 L85.6063206,4.03265446 C85.5854374,4.01174745 85.5570994,4 85.5275492,4 C85.4979991,4 85.4696611,4.01174745 85.4487779,4.03265446 L84.0326545,5.44877793 C83.9894081,5.49221697 83.9894081,5.56244146 84.0326545,5.6058805 L87.864285,9.43751102 L84.0326545,13.2695816 C84.0117474,13.2904648 84,13.3188028 84,13.3483529 C84,13.3779031 84.0117474,13.4062411 84.0326545,13.4271242 Z" id="close-white"></path>
                </g>
            </g>
        </g>
    </g>
</svg>