<?xml version="1.0" encoding="UTF-8"?>
<svg width="54px" height="54px" viewBox="0 0 54 54" version="1.1" xmlns="http://www.w3.org/2000/svg" xmlns:xlink="http://www.w3.org/1999/xlink">
    <title>confirmation white</title>
    <g id="Page-1" stroke="none" stroke-width="1" fill="none" fill-rule="evenodd">
        <g id="sign-up-confirmation-copy" transform="translate(-153.000000, -213.000000)" fill="#FFFFFF" fill-rule="nonzero">
            <g id="Group-4" transform="translate(153.000000, 213.000000)">
                <path d="M27,54 C41.9116882,54 54,41.9116882 54,27 C54,12.0883118 41.9116882,0 27,0 C12.0883118,0 0,12.0883118 0,27 C0,41.9116882 12.0883118,54 27,54 Z M27,50 C14.2974508,50 4,39.7025492 4,27 C4,14.2974508 14.2974508,4 27,4 C39.7025492,4 50,14.2974508 50,27 C50,39.7025492 39.7025492,50 27,50 Z" id="Oval"></path>
                <path d="M37.8931672,19.7570064 L24.2073413,36.4980779 L17.343502,28.7553323 C16.980777,28.3368035 16.834294,27.8764286 16.9040489,27.3741939 C16.9738037,26.8719593 17.2318926,26.4604121 17.6783234,26.1395399 C18.1247542,25.8186678 18.6339567,25.693111 19.2059462,25.7628658 C19.7779356,25.8326206 20.2313351,26.0628081 20.5661582,26.453435 L24.0817832,30.3875868 L34.5449529,17.5806672 C34.9076779,17.1621383 35.3680528,16.9180001 35.9260913,16.8482453 C36.4841298,16.7784905 36.9933323,16.8900965 37.453714,17.1830667 C37.9140958,17.4760369 38.1931109,17.8736334 38.2907676,18.3758681 C38.3884243,18.8781027 38.2558922,19.3384776 37.8931672,19.7570064 Z" id=""></path>
            </g>
        </g>
    </g>
</svg>