<?xml version="1.0" encoding="UTF-8"?>
<svg width="14px" height="14px" viewBox="0 0 14 14" version="1.1" xmlns="http://www.w3.org/2000/svg" xmlns:xlink="http://www.w3.org/1999/xlink">
    <title>contact driver</title>
    <g id="Page-1" stroke="none" stroke-width="1" fill="none" fill-rule="evenodd">
        <g id="Home--Copy-7" transform="translate(-137.000000, -853.000000)" fill="#F2B84D" fill-rule="nonzero">
            <g id="Group-11" transform="translate(0.000000, 836.000000)">
                <g id="Group-5" transform="translate(30.000000, 14.000000)">
                    <path d="M112.444444,17 C112.01489,17 111.666667,16.651777 111.666667,16.2222222 L111.666667,13.8888889 L108.555556,13.8888889 C107.696446,13.8888889 107,13.1924429 107,12.3333333 L107,4.55555556 C107,3.69644594 107.696446,3 108.555556,3 L119.444444,3 C120.303554,3 121,3.69644594 121,4.55555556 L121,12.3333333 C121,13.1924429 120.303554,13.8888889 119.444444,13.8888889 L116.255556,13.8888889 L113.377778,16.7744444 C113.222222,16.9144444 113.035556,17 112.833333,17 L112.444444,17 L112.444444,17 Z M113.222222,12.3333333 L113.222222,14.7288889 L115.617778,12.3333333 L119.444444,12.3333333 L119.444444,4.55555556 L108.555556,4.55555556 L108.555556,12.3333333 L113.222222,12.3333333 L113.222222,12.3333333 Z M110.111111,6.11111111 L117.888889,6.11111111 L117.888889,7.66666667 L110.111111,7.66666667 L110.111111,6.11111111 L110.111111,6.11111111 Z M110.111111,9.22222222 L116.333333,9.22222222 L116.333333,10.7777778 L110.111111,10.7777778 L110.111111,9.22222222 Z" id="contact-driver"></path>
                </g>
            </g>
        </g>
    </g>
</svg>