<?xml version="1.0" encoding="UTF-8"?>
<svg width="29px" height="29px" viewBox="0 0 29 29" version="1.1" xmlns="http://www.w3.org/2000/svg" xmlns:xlink="http://www.w3.org/1999/xlink">
    <title>green filled check</title>
    <g id="Page-1" stroke="none" stroke-width="1" fill="none" fill-rule="evenodd">
        <g id="Home--Copy-5" transform="translate(-20.000000, -567.000000)">
            <g id="green-filled-check" transform="translate(22.000000, 569.000000)">
                <circle id="Oval" stroke="#FAFAFA" stroke-width="3" fill="#5BE39B" cx="12.5" cy="12.5" r="12.5"></circle>
                <path d="M17.5108569,9.16822297 L11.215377,16.8691158 L8.05801091,13.3074529 C7.8911574,13.1149296 7.82377526,12.9031572 7.85586248,12.6721292 C7.88794969,12.4411013 8.0066706,12.2517896 8.21202877,12.1041884 C8.41738694,11.9565872 8.65162009,11.8988311 8.91473524,11.9309183 C9.1778504,11.9630055 9.38641416,12.0688917 9.54043279,12.2485801 L11.1576203,14.0582899 L15.9706783,8.16710689 C16.1375318,7.97458361 16.3493043,7.86228005 16.606002,7.83019283 C16.8626997,7.79810562 17.0969328,7.84944439 17.3087085,7.98421069 C17.5204841,8.11897699 17.648831,8.30187136 17.6937531,8.53289931 C17.7386752,8.76392725 17.6777104,8.97569968 17.5108569,9.16822297 Z" id="" fill="#FFFFFF" fill-rule="nonzero"></path>
            </g>
        </g>
    </g>
</svg>