<?xml version="1.0" encoding="UTF-8"?>
<svg width="16px" height="16px" viewBox="0 0 16 16" version="1.1" xmlns="http://www.w3.org/2000/svg" xmlns:xlink="http://www.w3.org/1999/xlink">
    <title>help</title>
    <g id="Page-1" stroke="none" stroke-width="1" fill="none" fill-rule="evenodd">
        <g id="Menu" transform="translate(-23.000000, -177.000000)" fill="#C3C1C1" fill-rule="nonzero">
            <g id="Shape" transform="translate(23.000000, 177.000000)">
                <path d="M7.2,12.8 L8.8,12.8 L8.8,11.2 L7.2,11.2 L7.2,12.8 L7.2,12.8 Z M8,0 C3.581722,0 0,3.581722 0,8 C0,10.1217319 0.842854723,12.1565632 2.34314575,13.6568542 C3.84343678,15.1571453 5.87826808,16 8,16 C10.1217319,16 12.1565632,15.1571453 13.6568542,13.6568542 C15.1571453,12.1565632 16,10.1217319 16,8 C16,5.87826808 15.1571453,3.84343678 13.6568542,2.34314575 C12.1565632,0.842854723 10.1217319,0 8,0 L8,0 Z M8,14.4 C4.472,14.4 1.6,11.528 1.6,8 C1.6,4.472 4.472,1.6 8,1.6 C11.528,1.6 14.4,4.472 14.4,8 C14.4,11.528 11.528,14.4 8,14.4 L8,14.4 Z M8,3.2 C6.2326888,3.2 4.8,4.6326888 4.8,6.4 L6.4,6.4 C6.4,5.5163444 7.1163444,4.8 8,4.8 C8.8836556,4.8 9.6,5.5163444 9.6,6.4 C9.6,8 7.2,7.8 7.2,10.4 L8.8,10.4 C8.8,8.6 11.2,8.4 11.2,6.4 C11.2,4.6326888 9.7673112,3.2 8,3.2 Z"></path>
            </g>
        </g>
    </g>
</svg>