<?xml version="1.0" encoding="UTF-8"?>
<svg width="19px" height="16px" viewBox="0 0 19 16" version="1.1" xmlns="http://www.w3.org/2000/svg" xmlns:xlink="http://www.w3.org/1999/xlink">
    <title>history</title>
    <g id="Page-1" stroke="none" stroke-width="1" fill="none" fill-rule="evenodd">
        <g id="Menu" transform="translate(-22.000000, -87.000000)" fill="#C3C1C1" fill-rule="nonzero">
            <path d="M33.1111111,91.4444444 L31.7777778,91.4444444 L31.7777778,95.8888889 L35.5822222,98.1466667 L36.2222222,97.0711111 L33.1111111,95.2222222 L33.1111111,91.4444444 M32.6666667,87 C28.2483887,87 24.6666667,90.581722 24.6666667,95 L22,95 L25.52,98.5822222 L29.1111111,95 L26.4444444,95 C26.4444444,91.5635616 29.2302282,88.7777778 32.6666667,88.7777778 C36.1031051,88.7777778 38.8888889,91.5635616 38.8888889,95 C38.8888889,98.4364384 36.1031051,101.222222 32.6666667,101.222222 C30.9511111,101.222222 29.3955556,100.52 28.2755556,99.3911111 L27.0133333,100.653333 C28.4622222,102.111111 30.4444444,103 32.6666667,103 C37.0849447,103 40.6666667,99.418278 40.6666667,95 C40.6666667,90.581722 37.0849447,87 32.6666667,87" id="history"></path>
        </g>
    </g>
</svg>