<?xml version="1.0" encoding="UTF-8"?>
<svg width="12px" height="14px" viewBox="0 0 12 14" version="1.1" xmlns="http://www.w3.org/2000/svg" xmlns:xlink="http://www.w3.org/1999/xlink">
    <title>logout</title>
    <g id="Page-1" stroke="none" stroke-width="1" fill="none" fill-rule="evenodd">
        <g id="Menu" transform="translate(-102.000000, -608.000000)" fill="#FFFFFF" fill-rule="nonzero">
            <g id="Group-15" transform="translate(102.000000, 605.000000)">
                <g id="" transform="translate(-0.000000, 3.213235)">
                    <path d="M2.61523437,9.09926471 C2.56445287,9.11649825 2.51367213,9.12511489 2.46289062,9.12511489 C2.36132762,9.12511489 2.26822959,9.08203168 2.18359375,8.99586397 L0.126953125,6.90199908 C0.0423172852,6.81583137 -5.32907052e-15,6.72104831 -5.32907052e-15,6.61764706 C-5.32907052e-15,6.51424581 0.0423172852,6.41946275 0.126953125,6.33329504 L2.18359375,4.23943015 C2.26822959,4.15326244 2.36132762,4.11017923 2.46289062,4.11017923 C2.51367213,4.11017923 2.56445287,4.11879587 2.61523437,4.13602941 C2.66601588,4.15326295 2.70833316,4.18772952 2.7421875,4.23943015 C2.80989617,4.30836432 2.84375,4.39453073 2.84375,4.49793199 L2.84375,5.76459099 L6.5,5.76459099 C6.60156301,5.76459099 6.68619758,5.80336588 6.75390625,5.88091682 C6.82161492,5.95846776 6.85546875,6.0489425 6.85546875,6.15234375 L6.85546875,7.08295037 C6.85546875,7.18635162 6.81738319,7.27682636 6.74121094,7.3543773 C6.66503868,7.43192824 6.57617238,7.47070313 6.47460937,7.47070313 L2.84375,7.47070313 L2.84375,8.71151195 C2.86067717,8.90108091 2.78450605,9.03033054 2.61523437,9.09926471 Z M11.8320313,0.491153493 L11.8320313,12.7441406 C11.8320313,12.7958413 11.8193361,12.8475411 11.7939453,12.8992417 C11.7685546,12.9509424 11.7389325,12.9983339 11.7050781,13.0414177 C11.6712238,13.0845016 11.6289065,13.1232765 11.578125,13.1577436 C11.5273435,13.1922107 11.4765628,13.2180606 11.4257813,13.2352941 L4.46875,13.2352941 C4.33333266,13.2352941 4.21907599,13.1879026 4.12597656,13.0931181 C4.03287714,12.9983336 3.98632812,12.882009 3.98632812,12.7441406 L3.98632812,9.09926471 C3.98632812,8.92692929 4.04557232,8.78044638 4.1640625,8.65981158 C4.28255268,8.53917679 4.42643145,8.47886029 4.59570312,8.47886029 C4.7141933,8.47886029 4.81998651,8.50901854 4.91308594,8.56933594 C5.00618536,8.62965333 5.07812475,8.70720311 5.12890625,8.80198759 C5.17968775,8.89677207 5.20507812,8.99586345 5.20507812,9.09926471 L5.20507812,11.4774816 C5.20507812,11.61535 5.25585887,11.7359829 5.35742187,11.8393842 C5.45898488,11.9427854 5.56900982,11.9944853 5.6875,11.9944853 L10.1054688,11.9944853 C10.1393231,11.9944853 10.1731769,11.9858687 10.2070313,11.9686351 C10.3085943,11.9514016 10.3974606,11.8953934 10.4736328,11.8006089 C10.5498051,11.7058244 10.5878906,11.5981164 10.5878906,11.4774816 L10.5878906,1.7578125 C10.5878906,1.61994416 10.5413416,1.49931118 10.4482422,1.39590993 C10.3551428,1.29250867 10.2408861,1.24080882 10.1054688,1.24080882 L5.71289062,1.24080882 C5.67903629,1.24080882 5.64518246,1.24942547 5.61132812,1.26665901 C5.49283795,1.28389255 5.39550819,1.33990072 5.31933594,1.4346852 C5.24316368,1.52946968 5.20507812,1.63717771 5.20507812,1.7578125 L5.20507812,4.11017923 C5.20507812,4.28251465 5.14583393,4.43330588 5.02734375,4.56255744 C4.90885357,4.69180901 4.7649748,4.75643382 4.59570312,4.75643382 C4.49414012,4.75643382 4.39257863,4.72627558 4.29101562,4.66595818 C4.18945262,4.60564078 4.1132815,4.52809101 4.0625,4.43330653 C4.0117185,4.33852204 3.98632812,4.23081402 3.98632812,4.11017923 L3.98632812,0.491153493 C3.98632812,0.456686409 3.99055985,0.417911521 3.99902344,0.374827665 C4.00748702,0.33174381 4.02441394,0.288660601 4.04980469,0.245576746 C4.07519544,0.202492891 4.10481754,0.163718003 4.13867187,0.129250919 C4.17252621,0.094783835 4.21061177,0.0689339097 4.25292969,0.0517003676 C4.29524761,0.0344668256 4.33333316,0.017233542 4.3671875,1.19904087e-13 L11.3242188,1.19904087e-13 C11.4596361,1.19904087e-13 11.5781245,0.0473915298 11.6796875,0.142176011 C11.7812505,0.236960492 11.8320313,0.353285156 11.8320313,0.491153493 Z"></path>
                </g>
            </g>
        </g>
    </g>
</svg>