<?xml version="1.0" encoding="UTF-8"?>
<svg width="17px" height="13px" viewBox="0 0 17 13" version="1.1" xmlns="http://www.w3.org/2000/svg" xmlns:xlink="http://www.w3.org/1999/xlink">
    <title>payment</title>
    <g id="Page-1" stroke="none" stroke-width="1" fill="none" fill-rule="evenodd">
        <g id="Menu" transform="translate(-24.000000, -133.000000)" fill="#C3C1C1" fill-rule="nonzero">
            <g id="cash-usd" transform="translate(24.000000, 133.000000)">
                <path d="M14.625,11.375 L1.625,11.375 L1.625,1.625 L14.625,1.625 L14.625,11.375 Z M14.625,0 L1.625,0 C0.723125,0 0,0.723125 0,1.625 L0,11.375 C0,12.2724627 0.727537282,13 1.625,13 L14.625,13 C15.5224627,13 16.25,12.2724627 16.25,11.375 L16.25,1.625 C16.25,0.723125 15.51875,0 14.625,0 L14.625,0 Z M7.3125,10.5625 L8.9375,10.5625 L8.9375,9.75 L9.75,9.75 C10.1987314,9.75 10.5625,9.38623136 10.5625,8.9375 L10.5625,6.5 C10.5625,6.05126864 10.1987314,5.6875 9.75,5.6875 L7.3125,5.6875 L7.3125,4.875 L10.5625,4.875 L10.5625,3.25 L8.9375,3.25 L8.9375,2.4375 L7.3125,2.4375 L7.3125,3.25 L6.5,3.25 C6.05126864,3.25 5.6875,3.61376864 5.6875,4.0625 L5.6875,6.5 C5.6875,6.94873136 6.05126864,7.3125 6.5,7.3125 L8.9375,7.3125 L8.9375,8.125 L5.6875,8.125 L5.6875,9.75 L7.3125,9.75 L7.3125,10.5625 Z" id="Shape"></path>
            </g>
        </g>
    </g>
</svg>