<?xml version="1.0" encoding="UTF-8"?>
<svg width="25px" height="25px" viewBox="0 0 25 25" version="1.1" xmlns="http://www.w3.org/2000/svg" xmlns:xlink="http://www.w3.org/1999/xlink">
    <title>profile grey</title>
    <g id="Page-1" stroke="none" stroke-width="1" fill="none" fill-rule="evenodd">
        <g id="Home--Copy" transform="translate(-71.000000, -12.000000)" fill="#EAEAEA" fill-rule="nonzero">
            <path d="M87.52,30.29 C87.39,30.72 87.06,30.83 87.03,30.85 C86.73,30.99 86.36,31.1 85.93,31.19 C85.28,31.34 84.5,31.41 83.54,31.41 C83.53,31.41 83.52,31.41 83.5,31.41 C83.49,31.41 83.48,31.41 83.46,31.41 C82.49,31.41 81.71,31.34 81.07,31.19 C80.64,31.1 80.27,30.99 79.97,30.85 C79.94,30.84 79.61,30.72 79.48,30.29 C79.14,29.19 78.38,27.17 78.39,25.77 C78.38,25.14 78.53,24.65 78.95,24.42 C79.41,24.15 80.41,23.81 81.12,23.74 C81.15,23.74 81.17,23.74 81.2,23.74 C81.24,23.74 81.27,23.73 81.31,23.73 C81.31,23.73 81.46,23.71 81.74,23.69 C81.8,23.68 81.85,23.68 81.86,23.68 C81.87,23.68 81.89,23.68 81.9,23.68 C82.53,23.63 83.1,23.62 83.43,23.62 L83.49,23.62 L83.55,23.62 C83.88,23.62 84.45,23.64 85.09,23.68 C85.11,23.68 85.12,23.68 85.13,23.68 C85.15,23.68 85.19,23.68 85.25,23.69 C85.52,23.71 85.68,23.73 85.68,23.73 C85.72,23.73 85.75,23.74 85.79,23.74 C85.82,23.74 85.84,23.74 85.87,23.74 C86.58,23.81 87.58,24.14 88.04,24.42 C88.45,24.65 88.6,25.15 88.6,25.77 C88.62,27.17 87.86,29.19 87.52,30.29 M83.38,17.6 C84.89,17.6 86.12,18.83 86.12,20.34 C86.12,21.85 84.89,23.08 83.38,23.08 C81.87,23.08 80.64,21.85 80.64,20.34 C80.64,18.82 81.86,17.6 83.38,17.6 M83.5,12 C76.6,12 71,17.6 71,24.5 C71,31.4 76.6,37 83.5,37 C90.4,37 96,31.4 96,24.5 C96,17.6 90.4,12 83.5,12" id="profile-grey"></path>
        </g>
    </g>
</svg>