<?xml version="1.0" encoding="UTF-8"?>
<svg width="25px" height="25px" viewBox="0 0 25 25" version="1.1" xmlns="http://www.w3.org/2000/svg" xmlns:xlink="http://www.w3.org/1999/xlink">
    <title>profile</title>
    <g id="Page-1" stroke="none" stroke-width="1" fill="none" fill-rule="evenodd">
        <g id="Menu" transform="translate(-19.000000, -16.000000)">
            <g id="profile" transform="translate(19.000000, 16.000000)">
                <circle id="Oval" stroke="#979797" fill="#FFFFFF" cx="12.5" cy="12.5" r="8.5"></circle>
                <path d="M16.52,18.29 C16.39,18.72 16.06,18.83 16.03,18.85 C15.73,18.99 15.36,19.1 14.93,19.19 C14.28,19.34 13.5,19.41 12.54,19.41 C12.53,19.41 12.52,19.41 12.5,19.41 C12.49,19.41 12.48,19.41 12.46,19.41 C11.49,19.41 10.71,19.34 10.07,19.19 C9.64,19.1 9.27,18.99 8.97,18.85 C8.94,18.84 8.61,18.72 8.48,18.29 C8.14,17.19 7.38,15.17 7.39,13.77 C7.38,13.14 7.53,12.65 7.95,12.42 C8.41,12.15 9.41,11.81 10.12,11.74 C10.15,11.74 10.17,11.74 10.2,11.74 C10.24,11.74 10.27,11.73 10.31,11.73 C10.31,11.73 10.46,11.71 10.74,11.69 C10.8,11.68 10.85,11.68 10.86,11.68 C10.87,11.68 10.89,11.68 10.9,11.68 C11.53,11.63 12.1,11.62 12.43,11.62 L12.49,11.62 L12.55,11.62 C12.88,11.62 13.45,11.64 14.09,11.68 C14.11,11.68 14.12,11.68 14.13,11.68 C14.15,11.68 14.19,11.68 14.25,11.69 C14.52,11.71 14.68,11.73 14.68,11.73 C14.72,11.73 14.75,11.74 14.79,11.74 C14.82,11.74 14.84,11.74 14.87,11.74 C15.58,11.81 16.58,12.14 17.04,12.42 C17.45,12.65 17.6,13.15 17.6,13.77 C17.62,15.17 16.86,17.19 16.52,18.29 M12.38,5.6 C13.89,5.6 15.12,6.83 15.12,8.34 C15.12,9.85 13.89,11.08 12.38,11.08 C10.87,11.08 9.64,9.85 9.64,8.34 C9.64,6.82 10.86,5.6 12.38,5.6 M12.5,0 C5.6,0 0,5.6 0,12.5 C0,19.4 5.6,25 12.5,25 C19.4,25 25,19.4 25,12.5 C25,5.6 19.4,0 12.5,0" id="a_1_" fill="#F2B84D" fill-rule="nonzero"></path>
            </g>
        </g>
    </g>
</svg>