<?xml version="1.0" encoding="UTF-8"?>
<svg width="40px" height="40px" viewBox="0 0 40 40" version="1.1" xmlns="http://www.w3.org/2000/svg" xmlns:xlink="http://www.w3.org/1999/xlink">
    <title>profile black</title>
    <g id="Page-1" stroke="none" stroke-width="1" fill="none" fill-rule="evenodd">
        <g id="Home--Copy-7" transform="translate(-20.000000, -404.000000)">
            <g id="profile-black" transform="translate(20.000000, 404.000000)">
                <circle id="Oval" stroke="#979797" fill="#FFFFFF" cx="20" cy="20" r="13.6"></circle>
                <path d="M26.432,29.264 C26.224,29.952 25.696,30.128 25.648,30.16 C25.168,30.384 24.576,30.56 23.888,30.704 C22.848,30.944 21.6,31.056 20.064,31.056 C20.048,31.056 20.032,31.056 20,31.056 C19.984,31.056 19.968,31.056 19.936,31.056 C18.384,31.056 17.136,30.944 16.112,30.704 C15.424,30.56 14.832,30.384 14.352,30.16 C14.304,30.144 13.776,29.952 13.568,29.264 C13.024,27.504 11.808,24.272 11.824,22.032 C11.808,21.024 12.048,20.24 12.72,19.872 C13.456,19.44 15.056,18.896 16.192,18.784 C16.24,18.784 16.272,18.784 16.32,18.784 C16.384,18.784 16.432,18.768 16.496,18.768 C16.496,18.768 16.736,18.736 17.184,18.704 C17.28,18.688 17.36,18.688 17.376,18.688 C17.392,18.688 17.424,18.688 17.44,18.688 C18.448,18.608 19.36,18.592 19.888,18.592 L19.984,18.592 L20.08,18.592 C20.608,18.592 21.52,18.624 22.544,18.688 C22.576,18.688 22.592,18.688 22.608,18.688 C22.64,18.688 22.704,18.688 22.8,18.704 C23.232,18.736 23.488,18.768 23.488,18.768 C23.552,18.768 23.6,18.784 23.664,18.784 C23.712,18.784 23.744,18.784 23.792,18.784 C24.928,18.896 26.528,19.424 27.264,19.872 C27.92,20.24 28.16,21.04 28.16,22.032 C28.192,24.272 26.976,27.504 26.432,29.264 M19.808,8.96 C22.224,8.96 24.192,10.928 24.192,13.344 C24.192,15.76 22.224,17.728 19.808,17.728 C17.392,17.728 15.424,15.76 15.424,13.344 C15.424,10.912 17.376,8.96 19.808,8.96 M20,0 C8.96,0 0,8.96 0,20 C0,31.04 8.96,40 20,40 C31.04,40 40,31.04 40,20 C40,8.96 31.04,0 20,0" id="a_1_" fill="#222222" fill-rule="nonzero"></path>
            </g>
        </g>
    </g>
</svg>