<?xml version="1.0" encoding="UTF-8"?>
<svg width="30px" height="28px" viewBox="0 0 30 28" version="1.1" xmlns="http://www.w3.org/2000/svg" xmlns:xlink="http://www.w3.org/1999/xlink">
    <title>rate filled</title>
    <g id="Page-1" stroke="none" stroke-width="1" fill="none" fill-rule="evenodd">
        <g id="Rate-the-driver" transform="translate(-193.000000, -265.000000)" fill="#F2B84D">
            <g id="Group-12" transform="translate(17.000000, 145.000000)">
                <g id="Group-11" transform="translate(58.000000, 119.613900)">
                    <path d="M133,24.8 L125.166549,28.2519359 C124.661158,28.4746443 124.070918,28.2454853 123.848209,27.7400949 C123.778467,27.5818297 123.750964,27.408182 123.768386,27.2361114 L124.630703,18.7193496 L124.630703,18.7193496 L118.927047,12.3360014 C118.559064,11.9241673 118.594613,11.2920011 119.006447,10.9240186 C119.135415,10.8087833 119.292065,10.7289662 119.461097,10.6923628 L127.82749,8.88065045 L127.82749,8.88065045 L132.135888,1.48358843 C132.413853,1.00635257 133.026064,0.844811381 133.5033,1.12277608 C133.652748,1.20982195 133.777066,1.33413994 133.864112,1.48358843 L138.17251,8.88065045 L138.17251,8.88065045 L146.538903,10.6923628 C147.078677,10.809249 147.421495,11.3415773 147.304609,11.8813514 C147.268005,12.050384 147.188188,12.2070338 147.072953,12.3360014 L141.369297,18.7193496 L141.369297,18.7193496 L142.231614,27.2361114 C142.287248,27.7855869 141.88691,28.276125 141.337435,28.3317591 C141.165364,28.3491811 140.991717,28.321678 140.833451,28.2519359 L133,24.8 L133,24.8 Z" id="rate-filled"></path>
                </g>
            </g>
        </g>
    </g>
</svg>