<?xml version="1.0" encoding="UTF-8"?>
<svg width="16px" height="14px" viewBox="0 0 16 14" version="1.1" xmlns="http://www.w3.org/2000/svg" xmlns:xlink="http://www.w3.org/1999/xlink">
    <title>recent</title>
    <g id="Page-1" stroke="none" stroke-width="1" fill="none" fill-rule="evenodd">
        <g id="Home--Copy" transform="translate(-37.000000, -437.000000)" fill="#C3C1C1" fill-rule="nonzero">
            <path d="M46.5238095,440.888889 L45.3809524,440.888889 L45.3809524,444.777778 L48.6419048,446.753333 L49.1904762,445.812222 L46.5238095,444.194444 L46.5238095,440.888889 M46.1428571,437 C42.3557617,437 39.2857143,440.134007 39.2857143,444 L37,444 L40.0171429,447.134444 L43.0952381,444 L40.8095238,444 C40.8095238,440.993116 43.1973385,438.555556 46.1428571,438.555556 C49.0883758,438.555556 51.4761905,440.993116 51.4761905,444 C51.4761905,447.006884 49.0883758,449.444444 46.1428571,449.444444 C44.672381,449.444444 43.3390476,448.83 42.3790476,447.842222 L41.2971429,448.946667 C42.5390476,450.222222 44.2380952,451 46.1428571,451 C49.9299526,451 53,447.865993 53,444 C53,440.134007 49.9299526,437 46.1428571,437" id="recent"></path>
        </g>
    </g>
</svg>