<?xml version="1.0" encoding="UTF-8"?>
<svg width="14px" height="18px" viewBox="0 0 14 18" version="1.1" xmlns="http://www.w3.org/2000/svg" xmlns:xlink="http://www.w3.org/1999/xlink">
    <title>request taxi yellow</title>
    <g id="Page-1" stroke="none" stroke-width="1" fill="none" fill-rule="evenodd">
        <g id="Home-" transform="translate(-83.000000, -596.000000)" fill="#F2B84D" fill-rule="nonzero">
            <path d="M84.5,606.5 L95,606.5 L93.875,603.125 L85.625,603.125 L84.5,606.5 L84.5,606.5 Z M93.875,610.25 C94.4963203,610.25 95,609.74632 95,609.125 C95,608.50368 94.4963203,608 93.875,608 C93.2536797,608 92.75,608.50368 92.75,609.125 C92.75,609.74632 93.2536797,610.25 93.875,610.25 L93.875,610.25 Z M85.625,610.25 C86.2463203,610.25 86.75,609.74632 86.75,609.125 C86.75,608.50368 86.2463203,608 85.625,608 C85.0036797,608 84.5,608.50368 84.5,609.125 C84.5,609.74632 85.0036797,610.25 85.625,610.25 L85.625,610.25 Z M94.94,602.75 L96.5,607.25 L96.5,613.25 C96.5,613.664214 96.1642136,614 95.75,614 L95,614 C94.5857864,614 94.25,613.664214 94.25,613.25 L94.25,612.5 L85.25,612.5 L85.25,613.25 C85.25,613.664214 84.9142136,614 84.5,614 L83.75,614 C83.3357864,614 83,613.664214 83,613.25 L83,607.25 L84.56,602.75 C84.71,602.315 85.1375,602 85.625,602 L93.875,602 C94.3625,602 94.79,602.315 94.94,602.75 L94.94,602.75 Z M89.75,596 C91.34,596 92.8625,596.645 93.9875,597.7625 L92.9225,598.8275 C92.0825,597.9875 90.935,597.5 89.75,597.5 C88.565,597.5 87.4175,597.9875 86.5775,598.8275 L85.52,597.7625 C86.6375,596.645 88.16,596 89.75,596 L89.75,596 Z M89.75,599 C90.545,599 91.3025,599.33 91.865,599.885 L90.8,600.95 C90.5225,600.6725 90.1475,600.5 89.75,600.5 C89.375,600.5 88.9775,600.6725 88.7,600.95 L87.635,599.885 C88.1975,599.33 88.955,599 89.75,599 Z" id="request-taxi-yellow"></path>
        </g>
    </g>
</svg>