<?xml version="1.0" encoding="UTF-8"?>
<svg width="17px" height="18px" viewBox="0 0 17 18" version="1.1" xmlns="http://www.w3.org/2000/svg" xmlns:xlink="http://www.w3.org/1999/xlink">
    <title>scheduled rides grey</title>
    <g id="Page-1" stroke="none" stroke-width="1" fill="none" fill-rule="evenodd">
        <g id="Home-" transform="translate(-262.000000, -596.000000)" fill="#C3C1C1" fill-rule="nonzero">
            <path d="M267.4,604.1 L267.4,605.9 L265.6,605.9 L265.6,604.1 L267.4,604.1 L267.4,604.1 Z M271,604.1 L271,605.9 L269.2,605.9 L269.2,604.1 L271,604.1 L271,604.1 Z M274.6,604.1 L274.6,605.9 L272.8,605.9 L272.8,604.1 L274.6,604.1 L274.6,604.1 Z M276.4,597.8 C277.394113,597.8 278.2,598.605887 278.2,599.6 L278.2,612.2 C278.2,613.194113 277.394113,614 276.4,614 L263.8,614 C262.801,614 262,613.19 262,612.2 L262,599.6 C262,598.605887 262.805887,597.8 263.8,597.8 L264.7,597.8 L264.7,596 L266.5,596 L266.5,597.8 L273.7,597.8 L273.7,596 L275.5,596 L275.5,597.8 L276.4,597.8 L276.4,597.8 Z M276.4,612.2 L276.4,602.3 L263.8,602.3 L263.8,612.2 L276.4,612.2 L276.4,612.2 Z M267.4,607.7 L267.4,609.5 L265.6,609.5 L265.6,607.7 L267.4,607.7 L267.4,607.7 Z M271,607.7 L271,609.5 L269.2,609.5 L269.2,607.7 L271,607.7 L271,607.7 Z M274.6,607.7 L274.6,609.5 L272.8,609.5 L272.8,607.7 L274.6,607.7 Z" id="scheduled-rides-grey"></path>
        </g>
    </g>
</svg>