<?xml version="1.0" encoding="UTF-8"?>
<svg width="16px" height="16px" viewBox="0 0 16 16" version="1.1" xmlns="http://www.w3.org/2000/svg" xmlns:xlink="http://www.w3.org/1999/xlink">
    <title>settings</title>
    <g id="Page-1" stroke="none" stroke-width="1" fill="none" fill-rule="evenodd">
        <g id="Menu" transform="translate(-24.000000, -222.000000)" fill="#C3C1C1" fill-rule="nonzero">
            <g id="Shape" transform="translate(24.000000, 222.000000)">
                <path d="M7.78346528,4.8 C9.55077648,4.8 10.9834653,6.2326888 10.9834653,8 C10.9834653,9.7673112 9.55077648,11.2 7.78346528,11.2 C6.01615408,11.2 4.58346528,9.7673112 4.58346528,8 C4.58346528,6.2326888 6.01615408,4.8 7.78346528,4.8 L7.78346528,4.8 Z M7.78346528,6.4 C6.89980968,6.4 6.18346528,7.1163444 6.18346528,8 C6.18346528,8.8836556 6.89980968,9.6 7.78346528,9.6 C8.66712088,9.6 9.38346528,8.8836556 9.38346528,8 C9.38346528,7.1163444 8.66712088,6.4 7.78346528,6.4 L7.78346528,6.4 Z M6.18346528,16 C5.98346528,16 5.81546528,15.856 5.78346528,15.664 L5.48746528,13.544 C4.98346528,13.344 4.55146528,13.072 4.13546528,12.752 L2.14346528,13.56 C1.96746528,13.624 1.75146528,13.56 1.65546528,13.384 L0.0554652831,10.616 C-0.0485347169,10.44 -0.000534716855,10.224 0.151465283,10.104 L1.83946528,8.776 L1.78346528,8 L1.83946528,7.2 L0.151465283,5.896 C-0.000534716855,5.776 -0.0485347169,5.56 0.0554652831,5.384 L1.65546528,2.616 C1.75146528,2.44 1.96746528,2.368 2.14346528,2.44 L4.13546528,3.24 C4.55146528,2.928 4.98346528,2.656 5.48746528,2.456 L5.78346528,0.336 C5.81546528,0.144 5.98346528,0 6.18346528,0 L9.38346528,0 C9.58346528,0 9.75146528,0.144 9.78346528,0.336 L10.0794653,2.456 C10.5834653,2.656 11.0154653,2.928 11.4314653,3.24 L13.4234653,2.44 C13.5994653,2.368 13.8154653,2.44 13.9114653,2.616 L15.5114653,5.384 C15.6154653,5.56 15.5674653,5.776 15.4154653,5.896 L13.7274653,7.2 L13.7834653,8 L13.7274653,8.8 L15.4154653,10.104 C15.5674653,10.224 15.6154653,10.44 15.5114653,10.616 L13.9114653,13.384 C13.8154653,13.56 13.5994653,13.632 13.4234653,13.56 L11.4314653,12.76 C11.0154653,13.072 10.5834653,13.344 10.0794653,13.544 L9.78346528,15.664 C9.75146528,15.856 9.58346528,16 9.38346528,16 L6.18346528,16 L6.18346528,16 Z M7.18346528,1.6 L6.88746528,3.688 C5.92746528,3.888 5.07946528,4.4 4.46346528,5.112 L2.53546528,4.28 L1.93546528,5.32 L3.62346528,6.56 C3.30346528,7.496 3.30346528,8.512 3.62346528,9.44 L1.92746528,10.688 L2.52746528,11.728 L4.47146528,10.896 C5.08746528,11.6 5.92746528,12.112 6.87946528,12.304 L7.17546528,14.4 L8.39146528,14.4 L8.68746528,12.312 C9.63946528,12.112 10.4794653,11.6 11.0954653,10.896 L13.0394653,11.728 L13.6394653,10.688 L11.9434653,9.448 C12.2634653,8.512 12.2634653,7.496 11.9434653,6.56 L13.6314653,5.32 L13.0314653,4.28 L11.1034653,5.112 C10.4874653,4.4 9.63946528,3.888 8.67946528,3.696 L8.38346528,1.6 L7.18346528,1.6 Z"></path>
            </g>
        </g>
    </g>
</svg>