<?xml version="1.0" encoding="UTF-8"?>
<svg width="24px" height="24px" viewBox="0 0 24 24" version="1.1" xmlns="http://www.w3.org/2000/svg" xmlns:xlink="http://www.w3.org/1999/xlink">
    <title>small profile black</title>
    <g id="Page-1" stroke="none" stroke-width="1" fill="none" fill-rule="evenodd">
        <g id="split-fare-2" transform="translate(-47.000000, -352.000000)">
            <g id="small-profile-black" transform="translate(47.000000, 352.000000)">
                <circle id="Oval" stroke="#979797" fill="#FFFFFF" cx="12" cy="12" r="8.16"></circle>
                <path d="M15.8592,17.5584 C15.7344,17.9712 15.4176,18.0768 15.3888,18.096 C15.1008,18.2304 14.7456,18.336 14.3328,18.4224 C13.7088,18.5664 12.96,18.6336 12.0384,18.6336 C12.0288,18.6336 12.0192,18.6336 12,18.6336 C11.9904,18.6336 11.9808,18.6336 11.9616,18.6336 C11.0304,18.6336 10.2816,18.5664 9.6672,18.4224 C9.2544,18.336 8.8992,18.2304 8.6112,18.096 C8.5824,18.0864 8.2656,17.9712 8.1408,17.5584 C7.8144,16.5024 7.0848,14.5632 7.0944,13.2192 C7.0848,12.6144 7.2288,12.144 7.632,11.9232 C8.0736,11.664 9.0336,11.3376 9.7152,11.2704 C9.744,11.2704 9.7632,11.2704 9.792,11.2704 C9.8304,11.2704 9.8592,11.2608 9.8976,11.2608 C9.8976,11.2608 10.0416,11.2416 10.3104,11.2224 C10.368,11.2128 10.416,11.2128 10.4256,11.2128 C10.4352,11.2128 10.4544,11.2128 10.464,11.2128 C11.0688,11.1648 11.616,11.1552 11.9328,11.1552 L11.9904,11.1552 L12.048,11.1552 C12.3648,11.1552 12.912,11.1744 13.5264,11.2128 C13.5456,11.2128 13.5552,11.2128 13.5648,11.2128 C13.584,11.2128 13.6224,11.2128 13.68,11.2224 C13.9392,11.2416 14.0928,11.2608 14.0928,11.2608 C14.1312,11.2608 14.16,11.2704 14.1984,11.2704 C14.2272,11.2704 14.2464,11.2704 14.2752,11.2704 C14.9568,11.3376 15.9168,11.6544 16.3584,11.9232 C16.752,12.144 16.896,12.624 16.896,13.2192 C16.9152,14.5632 16.1856,16.5024 15.8592,17.5584 M11.8848,5.376 C13.3344,5.376 14.5152,6.5568 14.5152,8.0064 C14.5152,9.456 13.3344,10.6368 11.8848,10.6368 C10.4352,10.6368 9.2544,9.456 9.2544,8.0064 C9.2544,6.5472 10.4256,5.376 11.8848,5.376 M12,0 C5.376,0 0,5.376 0,12 C0,18.624 5.376,24 12,24 C18.624,24 24,18.624 24,12 C24,5.376 18.624,0 12,0" id="a_1_" fill="#222222" fill-rule="nonzero"></path>
            </g>
        </g>
    </g>
</svg>