<?xml version="1.0" encoding="UTF-8"?>
<svg width="30px" height="28px" viewBox="0 0 30 28" version="1.1" xmlns="http://www.w3.org/2000/svg" xmlns:xlink="http://www.w3.org/1999/xlink">
    <title>Star Copy 5</title>
    <g id="Page-1" stroke="none" stroke-width="1" fill="none" fill-rule="evenodd">
        <g id="Rate-the-driver" transform="translate(-232.000000, -265.000000)" fill="#D8D8D8">
            <g id="Group-12" transform="translate(17.000000, 145.000000)">
                <g id="Group-11" transform="translate(58.000000, 119.613900)">
                    <path d="M172,24.8 L164.166549,28.2519359 C163.661158,28.4746443 163.070918,28.2454853 162.848209,27.7400949 C162.778467,27.5818297 162.750964,27.408182 162.768386,27.2361114 L163.630703,18.7193496 L163.630703,18.7193496 L157.927047,12.3360014 C157.559064,11.9241673 157.594613,11.2920011 158.006447,10.9240186 C158.135415,10.8087833 158.292065,10.7289662 158.461097,10.6923628 L166.82749,8.88065045 L166.82749,8.88065045 L171.135888,1.48358843 C171.413853,1.00635257 172.026064,0.844811381 172.5033,1.12277608 C172.652748,1.20982195 172.777066,1.33413994 172.864112,1.48358843 L177.17251,8.88065045 L177.17251,8.88065045 L185.538903,10.6923628 C186.078677,10.809249 186.421495,11.3415773 186.304609,11.8813514 C186.268005,12.050384 186.188188,12.2070338 186.072953,12.3360014 L180.369297,18.7193496 L180.369297,18.7193496 L181.231614,27.2361114 C181.287248,27.7855869 180.88691,28.276125 180.337435,28.3317591 C180.165364,28.3491811 179.991717,28.321678 179.833451,28.2519359 L172,24.8 L172,24.8 Z" id="Star-Copy-5"></path>
                </g>
            </g>
        </g>
    </g>
</svg>