<?xml version="1.0" encoding="UTF-8"?>
<svg width="48px" height="8px" viewBox="0 0 48 8" version="1.1" xmlns="http://www.w3.org/2000/svg" xmlns:xlink="http://www.w3.org/1999/xlink">
    <title>stars group black</title>
    <g id="Page-1" stroke="none" stroke-width="1" fill="none" fill-rule="evenodd">
        <g id="Home--Copy-8" transform="translate(-75.000000, -431.000000)" fill="#222222">
            <g id="stars-group-black" transform="translate(75.000000, 431.000000)">
                <polygon id="Star-Copy" points="4 6.24 1.64885899 7.23606798 1.8696334 4.69219807 0.195773935 2.76393202 2.68336103 2.18780193 4 0 5.31663897 2.18780193 7.80422607 2.76393202 6.1303666 4.69219807 6.35114101 7.23606798"></polygon>
                <polygon id="Star-Copy-2" points="14 6.24 11.648859 7.23606798 11.8696334 4.69219807 10.1957739 2.76393202 12.683361 2.18780193 14 0 15.316639 2.18780193 17.8042261 2.76393202 16.1303666 4.69219807 16.351141 7.23606798"></polygon>
                <polygon id="Star-Copy-3" points="24 6.24 21.648859 7.23606798 21.8696334 4.69219807 20.1957739 2.76393202 22.683361 2.18780193 24 0 25.316639 2.18780193 27.8042261 2.76393202 26.1303666 4.69219807 26.351141 7.23606798"></polygon>
                <polygon id="Star-Copy-4" points="34 6.24 31.648859 7.23606798 31.8696334 4.69219807 30.1957739 2.76393202 32.683361 2.18780193 34 0 35.316639 2.18780193 37.8042261 2.76393202 36.1303666 4.69219807 36.351141 7.23606798"></polygon>
                <polygon id="Star-Copy-5" points="44 6.24 41.648859 7.23606798 41.8696334 4.69219807 40.1957739 2.76393202 42.683361 2.18780193 44 0 45.316639 2.18780193 47.8042261 2.76393202 46.1303666 4.69219807 46.351141 7.23606798"></polygon>
            </g>
        </g>
    </g>
</svg>