<?xml version="1.0" encoding="UTF-8"?>
<svg width="18px" height="24px" viewBox="0 0 18 24" version="1.1" xmlns="http://www.w3.org/2000/svg" xmlns:xlink="http://www.w3.org/1999/xlink">
    <title>taxi search</title>
    <g id="Page-1" stroke="none" stroke-width="1" fill="none" fill-rule="evenodd">
        <g id="Home-" transform="translate(-35.000000, -71.000000)" fill="#3E3E39" fill-rule="nonzero">
            <path d="M37,85 L51,85 L49.5,80.5 L38.5,80.5 L37,85 L37,85 Z M49.5,90 C50.3284271,90 51,89.3284271 51,88.5 C51,87.6715729 50.3284271,87 49.5,87 C48.6715729,87 48,87.6715729 48,88.5 C48,89.3284271 48.6715729,90 49.5,90 L49.5,90 Z M38.5,90 C39.3284271,90 40,89.3284271 40,88.5 C40,87.6715729 39.3284271,87 38.5,87 C37.6715729,87 37,87.6715729 37,88.5 C37,89.3284271 37.6715729,90 38.5,90 L38.5,90 Z M50.92,80 L53,86 L53,94 C53,94.5522847 52.5522847,95 52,95 L51,95 C50.4477153,95 50,94.5522847 50,94 L50,93 L38,93 L38,94 C38,94.5522847 37.5522847,95 37,95 L36,95 C35.4477153,95 35,94.5522847 35,94 L35,86 L37.08,80 C37.28,79.42 37.85,79 38.5,79 L49.5,79 C50.15,79 50.72,79.42 50.92,80 L50.92,80 Z M44,71 C46.12,71 48.15,71.86 49.65,73.35 L48.23,74.77 C47.11,73.65 45.58,73 44,73 C42.42,73 40.89,73.65 39.77,74.77 L38.36,73.35 C39.85,71.86 41.88,71 44,71 L44,71 Z M44,75 C45.06,75 46.07,75.44 46.82,76.18 L45.4,77.6 C45.03,77.23 44.53,77 44,77 C43.5,77 42.97,77.23 42.6,77.6 L41.18,76.18 C41.93,75.44 42.94,75 44,75 Z" id="taxi-search"></path>
        </g>
    </g>
</svg>