<?xml version="1.0" encoding="UTF-8"?>
<svg width="18px" height="18px" viewBox="0 0 18 18" version="1.1" xmlns="http://www.w3.org/2000/svg" xmlns:xlink="http://www.w3.org/1999/xlink">
    <title>taxi icon</title>
    <g id="Page-1" stroke="none" stroke-width="1" fill="none" fill-rule="evenodd">
        <g id="Home--Copy-5" transform="translate(-35.000000, -361.000000)" fill="#3E3E39" fill-rule="nonzero">
            <path d="M37,369 L38.5,364.5 L49.5,364.5 L51,369 L37,369 Z M49.5,374 C48.6715729,374 48,373.328427 48,372.5 C48,371.671573 48.6715729,371 49.5,371 C50.3284271,371 51,371.671573 51,372.5 C51,373.328427 50.3284271,374 49.5,374 L49.5,374 Z M38.5,374 C37.6715729,374 37,373.328427 37,372.5 C37,371.671573 37.6715729,371 38.5,371 C39.3284271,371 40,371.671573 40,372.5 C40,373.328427 39.3284271,374 38.5,374 L38.5,374 Z M50.92,364 C50.72,363.42 50.16,363 49.5,363 L47,363 L47,361 L41,361 L41,363 L38.5,363 C37.84,363 37.28,363.42 37.08,364 L35,370 L35,378 C35,378.552285 35.4477153,379 36,379 L37,379 C37.5522847,379 38,378.552285 38,378 L38,377 L50,377 L50,378 C50,378.552285 50.4477153,379 51,379 L52,379 C52.5522847,379 53,378.552285 53,378 L53,370 L50.92,364 Z" id="taxi-icon"></path>
        </g>
    </g>
</svg>